<svg t="1751101561529" class="icon" viewBox="0 0 1024 1024" version="1.1" xmlns="http://www.w3.org/2000/svg" p-id="5549" width="200" height="200"><path d="M269.63816297 504.71822222c12.37902222 8.37404445 29.36983703 5.09724445 37.74388148-7.28177777 8.37404445-12.37902222 5.09724445-29.36983703-7.28177778-37.74388148-59.83194075-40.2925037-95.75537778-107.77031111-95.63401482-179.98127408 0-119.78524445 97.3330963-217.11834075 217.11834074-217.11834074 66.5069037 0.12136297 129.25155555 30.58346667 170.3936 82.76954074 41.14204445 52.18607408 56.19105185 120.39205925 40.77795556 184.95715556-3.51952592 14.56355555 5.46133333 29.24847408 20.02488888 32.768 14.56355555 3.51952592 29.24847408-5.46133333 32.768-20.0248889 19.29671111-80.82773333 0.48545185-166.02453333-50.97244444-231.3178074-51.57925925-65.17191111-130.1010963-103.27988148-213.11336296-103.40124445-149.7618963 0.12136297-271.24622222 121.60568889-271.36758518 271.36758519 0 90.29404445 44.66157037 174.39857778 119.54251852 225.00693333z m0 0" p-id="5550" fill="#e8ad56"></path><path d="M886.16201482 738.82737778V539.67075555c0-43.20521482-35.0738963-78.27911111-78.27911112-78.2791111-14.0781037 0-26.82121482 4.61179259-38.22933333 11.16539258V629.72207408c0 5.94678518-4.85451852 10.8013037-10.8013037 10.8013037s-10.8013037-4.85451852-10.8013037-10.8013037V454.35259259c-14.44219259-21.60260741-38.83614815-34.58844445-64.80782222-34.58844444-13.59265185 0-25.85031111 4.36906667-37.01570372 10.43721482V629.72207408c0 5.94678518-4.85451852 10.8013037-10.8013037 10.8013037s-10.8013037-4.85451852-10.8013037-10.8013037V409.08420741c-14.32082963-22.69487408-39.20023703-36.53025185-66.02145185-36.65161482-11.89357037 0-22.81623703 3.39816297-32.88936296 8.25268149V629.72207408c0 5.94678518-4.85451852 10.8013037-10.80130371 10.8013037s-10.8013037-4.85451852-10.8013037-10.8013037V249.24918518c-18.32580741-31.7970963-55.7056-47.21019259-91.14358519-37.74388148-35.43798518 9.58767408-59.9533037 41.74885925-59.83194074 78.40047408v338.35994074s-51.09380741-39.80705185-75.48776296-64.32237037c-24.51531852-24.51531852-73.30322963-27.54939259-113.23164444 12.37902222s-31.43300741 88.95905185 0 120.39205926c31.43300741 31.43300741 217.48242963 218.81742222 254.49813333 255.83312592s89.4445037 62.98737778 192.96711111 62.98737778 160.07774815-16.01991111 222.33694815-78.27911111c61.89511111-62.13783703 51.94334815-128.52337778 51.94334815-198.42844444z m0 0" p-id="5551" fill="#e8ad56"></path></svg>