<svg width="34" height="14" viewBox="0 0 34 14" fill="none" xmlns="http://www.w3.org/2000/svg">
<g id="Group 36992">
<path id="2" d="M32.4546 1.42567C32.6743 1.42423 33.4985 1.26441 33.6285 1.47156C33.7175 1.6142 33.6474 2.12922 33.649 2.30946C33.6505 2.51076 33.655 2.68427 33.6509 2.8827C33.6463 3.12389 33.7147 3.93434 33.5796 4.06141C33.5114 4.12536 33.4168 4.14462 33.3238 4.15516C32.8412 4.20743 31.7258 4.19785 31.232 4.15613C31.119 4.14656 31.0103 4.14561 30.9283 4.05946C30.9349 3.74777 30.8522 3.37339 30.8501 3.07801C30.8471 2.6692 30.8466 2.23932 30.8501 1.83387C30.8527 1.57733 30.8985 1.40399 31.191 1.39344L31.5064 1.39246C31.822 1.40012 32.1406 1.42746 32.4546 1.42567ZM33.0933 3.98621C33.0933 4.02553 33.2201 4.08244 33.271 4.0575C33.4366 4.00804 33.2456 3.38691 33.2456 3.24403H33.0933V3.98621ZM33.5503 1.47352C33.1719 1.5568 32.7624 1.53771 32.3804 1.47352V1.66395H33.3472V1.76063H32.4566L32.3794 1.90418H33.3218C33.3325 1.90418 33.3802 1.83235 33.398 1.85633V1.99988H32.3287V2.24012C32.0505 2.27941 31.7656 2.26634 31.4859 2.28504C31.3947 2.29127 31.3214 2.2725 31.2603 2.35926C31.5757 2.55621 31.9707 2.27577 32.3238 2.43543C32.3726 2.51783 32.2847 2.76589 32.2017 2.76649H31.106C31.1025 2.73519 31.174 2.67078 31.1831 2.67078H32.0992L32.1763 2.52723H31.2339C30.8757 1.8689 31.8247 2.29056 32.1753 2.14344C32.1972 2.09884 32.1297 1.99988 32.0992 1.99988H31.1568V1.90418H32.2271V1.52039C32.0396 1.56259 31.0625 1.42531 31.0044 1.59266L31.0054 1.59168V3.14832H31.9478L32.024 3.29188H31.1324C31.1152 3.29098 31.0721 3.23932 31.0347 3.24598L30.9546 3.31727L31.0308 3.43641H31.897C31.9108 3.43532 31.9658 3.36811 32.024 3.38856L31.9478 3.53211H31.0054L31.0123 3.9325L31.0894 4.00477L32.3492 4.05555L32.4234 3.98035L32.4566 3.53211L32.5337 4.05946L32.6861 4.0116V3.1493H32.8384C32.8578 3.20157 32.7876 3.25455 32.7876 3.26942V3.98817C33.1767 4.27884 32.9068 3.23794 32.9419 3.1991L33.3462 3.15028L33.4498 4.0116C33.5986 3.91426 33.5672 3.55453 33.5728 3.36512C33.5804 3.1144 33.548 2.80908 33.5464 2.55164C33.5444 2.1955 33.5727 1.83445 33.5503 1.47352ZM32.1509 2.90906C32.3552 3.02701 32.3772 3.60361 32.2066 3.72742C32.0007 3.87654 31.3324 3.7803 31.0562 3.8661C31.0405 3.77429 31.0963 3.73791 31.1831 3.72254C31.4705 3.67316 31.8558 3.80418 32.1304 3.60828C32.2231 3.50721 32.1982 3.00486 32.0494 3.00379H31.107V2.90809H32.1509V2.90906ZM32.482 2.64246C32.5219 2.6206 32.5473 2.66798 32.5581 2.66883H33.399L33.3912 2.95008C33.1705 3.07294 32.8246 2.95026 32.6158 3.0116C32.4736 3.05429 32.6375 3.45914 32.3814 3.21668L32.482 2.90809H33.2456V2.76453H32.4312L32.482 2.64246ZM32.4322 2.5741C32.4266 2.17613 33.111 2.50722 33.399 2.43055C33.4025 2.4611 33.332 2.52566 33.3228 2.52625C33.086 2.52625 32.7838 2.50186 32.5591 2.52625L32.5083 2.5575C32.4866 2.5713 32.4605 2.58276 32.4322 2.5741ZM32.4556 2.19031C32.5157 2.11025 33.081 2.13119 33.2085 2.15516C33.3028 2.1729 33.3757 2.17717 33.3472 2.28602H32.5074L32.4556 2.19031ZM31.9117 1.62781C32.0073 1.62296 32.0548 1.58726 32.1246 1.68738C32.1208 1.83565 31.2856 1.67517 31.1587 1.85438L31.2085 1.68641C31.4357 1.67249 31.682 1.6398 31.9117 1.62781Z" fill="#EA3A3A"/>
<path id="1" d="M23.0856 9.48175C23.1852 9.33857 23.7234 9.94239 23.7789 9.90558C23.7757 9.84774 23.7761 9.84181 23.8385 9.84992C23.7963 9.98611 23.9627 10.0713 23.9449 10.1907C23.9321 10.2736 23.6907 10.6437 23.6266 10.7357C22.5967 12.0553 20.8844 13.543 19.0563 13.4993C19.0424 13.4184 19.0744 13.4521 19.1246 13.4388C20.1283 13.3527 21.1334 12.9802 21.8903 12.3255C21.799 12.2154 20.7525 12.9761 20.6207 12.7923C21.8222 12.3257 22.9717 10.6967 23.0856 9.48175ZM6.41174 0.543278C6.47763 0.483298 7.18796 0.729495 7.3053 0.776676C7.7556 0.957496 7.49935 1.09077 7.44787 1.40851C7.43283 1.50068 7.42127 1.67345 7.41565 1.77375C7.38906 2.23271 7.43456 2.71319 7.41565 3.17414C7.48626 3.18971 7.46403 3.16194 7.48205 3.13703C7.72846 2.79339 8.11082 1.92105 8.17639 1.51203C8.20089 1.35941 8.10923 1.09153 8.34143 1.19855C8.46853 1.25723 8.75327 1.45078 8.8717 1.53937C9.00199 1.63677 9.14088 1.70184 9.04162 1.88898C8.5734 2.34931 8.12016 2.81391 7.60705 3.2298C7.42063 3.381 7.38138 3.32346 7.41565 3.62726C7.74743 3.58904 8.16836 3.62 8.48596 3.53449C8.75652 3.46167 8.92478 3.13402 9.20276 3.4007C9.27835 3.47323 9.64354 3.90074 9.69104 3.97882C9.87687 4.28461 9.36014 4.07901 9.22424 4.0589C9.03485 4.03066 8.90294 4.04936 8.7301 4.05109C8.27099 4.05562 7.81558 4.08917 7.35705 4.10871C7.48222 4.23669 8.20307 4.46962 8.20373 4.65949L7.151 5.77668C7.36832 5.72983 7.61675 5.75754 7.83166 5.70832C8.02148 5.6645 8.19246 5.43601 8.37463 5.46515C8.45443 5.47965 9.04334 6.13297 9.03674 6.18293C9.01163 6.33186 8.55267 6.18137 8.4342 6.17316C8.34587 6.16722 8.25623 6.17574 8.1676 6.17121L6.92834 6.25715L6.8551 6.30011V7.14875C6.8771 7.17741 6.88117 7.17902 6.91565 7.17902C7.03932 7.17898 7.33097 7.1535 7.44787 7.12238C7.64281 7.07053 7.86579 6.76623 8.07873 6.93781C8.15433 6.99894 8.39826 7.30579 8.47815 7.40363C8.85536 7.86535 8.32982 7.63263 8.05237 7.61359C7.76438 7.59406 7.27863 7.61016 6.99084 7.64582C6.94392 7.65176 6.8979 7.66692 6.8551 7.68586L6.76623 8.66144L8.3717 8.57355C8.68398 8.59479 8.99288 8.13106 9.26233 8.37824C9.33187 8.53897 9.81354 8.95194 9.83362 9.07843C9.83773 9.10385 9.84284 9.1209 9.82483 9.14386C9.76633 9.21889 9.24782 9.06658 9.11487 9.05695C8.82807 9.03572 8.53922 9.07563 8.25744 9.08527C7.82846 9.09999 7.40106 9.11684 6.97326 9.14289C7.17977 9.56596 7.49049 9.73613 7.78674 10.1038C7.78674 10.1038 8.08137 10.4635 8.13928 10.5286C8.4557 10.8834 8.87191 10.9863 9.26721 11.2581C9.37473 11.332 9.98498 11.6829 10.0094 11.7347C10.018 11.7551 10.023 11.8122 10.0123 11.8275C9.79015 11.8821 9.57945 11.9007 9.36584 11.9857C9.21692 12.0449 8.87489 12.3007 8.78674 12.3099C8.73977 12.3147 8.70594 12.3062 8.66369 12.2884C8.52642 12.2305 8.20649 11.7448 8.11291 11.5999C7.82312 11.1524 7.58756 10.9253 7.37073 10.4417L7.31506 10.3577L6.81994 9.17707L6.6842 9.17609C6.57636 9.75451 6.38764 10.3201 6.10315 10.8402C6.07491 10.8913 5.83389 11.247 5.85217 11.264L5.65881 11.4837C5.57415 11.5656 5.51005 11.6687 5.42346 11.7464C4.97114 12.1521 4.48698 12.4518 3.90881 12.6712C3.78561 12.7179 3.00896 12.9845 2.95666 12.9329V12.8489C3.36083 12.7181 4.03858 12.1835 4.34436 11.931C4.53048 11.7806 4.77062 11.5211 4.90002 11.3577C5.35243 10.7423 5.647 9.97254 5.76135 9.22785L4.21448 9.42511C4.11491 9.41379 3.89857 9.19469 3.82678 9.11457C3.7897 9.07305 3.63427 8.90594 3.66565 8.86066L5.83069 8.72101C5.86348 8.70119 5.87224 8.65232 5.87756 8.6175C5.91828 8.34381 5.92698 8.03378 5.93908 7.75617C5.85607 7.75928 5.77142 7.7512 5.68811 7.75715C5.49788 7.77045 4.95911 7.91037 4.83752 7.89289C4.75595 7.88132 4.31185 7.41372 4.31506 7.37531L5.96838 7.24738V6.3841C5.94836 6.32422 5.6718 6.36364 5.59924 6.37043C5.36767 6.39167 5.12973 6.43093 4.89905 6.4632C4.79683 6.47739 4.64659 6.53585 4.56213 6.5384C4.36401 6.54366 4.18266 6.16794 4.01819 6.07258L4.04846 5.98761L5.37756 5.88898C5.21392 5.33847 5.00061 4.82408 4.66955 4.34601C4.60367 4.30694 3.99551 4.48911 3.81115 4.4339C3.77017 4.42038 3.42142 4.07485 3.38342 4.02375C3.3598 3.9922 3.32778 3.97412 3.34045 3.92414C3.36714 3.83532 5.04711 3.84585 5.2467 3.74152C5.25704 3.21913 5.27819 2.69067 5.26135 2.16828C5.2525 1.8921 5.25085 1.44391 5.19397 1.18683C5.1603 1.03486 5.0499 0.900268 5.05334 0.74152C5.1023 0.696859 5.75718 0.926553 5.86487 0.967106C5.93365 0.993134 6.12806 1.05444 6.1549 1.11554C6.23645 1.3027 6.05273 1.57288 6.05627 1.77277L6.02698 3.71125L6.6178 3.68293C6.59922 3.05707 6.64219 2.42666 6.61975 1.80109C6.61089 1.55456 6.60427 1.16787 6.54553 0.938786C6.50978 0.799199 6.41204 0.683714 6.41174 0.543278ZM14.4889 1.12629C14.63 1.15297 15.3764 1.41648 15.4625 1.49347C15.4953 1.52315 15.5375 1.57243 15.5455 1.61457C15.5641 1.71562 15.4166 2.09649 15.403 2.2591C15.3855 2.46522 15.3788 2.72731 15.3717 2.93683C15.3425 3.80711 15.3954 4.14178 15.3727 5.01203H15.3737C15.4327 5.0191 15.4713 4.96457 15.5065 4.92804C16.3139 4.09114 16.9783 2.80999 17.1725 1.68683H17.2643L18.1022 2.3841C18.1586 2.47892 18.1583 2.54563 18.1119 2.64386C18.0579 2.7579 17.7212 3.14907 17.6168 3.27179C16.9831 4.01786 16.2096 4.62979 15.401 5.19465C15.3507 5.2618 15.3603 5.51345 15.401 5.59406C15.4481 5.62502 15.9889 5.55606 16.0973 5.55011C16.5324 5.5258 17.2716 5.5504 17.6627 5.43781C17.9227 5.36306 18.2234 4.9958 18.4928 5.24836C18.5493 5.30153 19.0488 5.93166 19.0709 5.98175C19.0929 6.03171 19.1044 6.08608 19.0895 6.13996C19.0591 6.15213 19.0242 6.16729 18.9908 6.1673C18.8121 6.16674 18.4587 6.01885 18.2233 6.00129C17.7624 5.96703 17.2924 6.03427 16.8336 6.0589C16.7458 6.06359 16.4253 6.03553 16.3893 6.08527C16.3293 6.77797 16.3524 7.47234 16.3483 8.1673C16.3441 8.8623 16.3154 9.03634 16.3473 9.75129C16.3612 10.0623 16.3695 10.5921 16.692 10.7484C16.9939 10.8941 17.8646 10.871 18.1744 10.7366C18.3282 10.6699 18.3818 10.6016 18.4352 10.4495L18.8639 8.39777L18.9752 8.34992C18.9826 9.02196 18.9271 9.73166 19.1442 10.3802C19.2639 10.7374 19.651 11.1435 19.2555 11.4886C18.8377 11.853 17.1307 11.8389 16.5826 11.7308C15.4668 11.5105 15.4901 10.5586 15.4606 9.66535C15.4157 8.3112 15.5002 7.51592 15.4576 6.16144L15.401 6.12726L13.9264 6.22883C14.0118 6.37743 14.4205 6.41157 14.4742 6.56672C14.5111 6.67462 14.4429 7.06054 14.4235 7.2005C14.1262 9.36224 13.0914 11.6687 11.0231 12.7679C10.9471 12.8084 10.6166 13.0227 10.6178 12.8616C10.6197 12.8071 11.2715 12.1994 11.3727 12.0843C12.5273 10.7735 13.2362 8.95615 13.4498 7.25812C13.4634 7.15031 13.5483 6.29844 13.4664 6.28449C12.8452 6.29496 12.2306 6.40181 11.6158 6.47883C11.5668 6.46212 11.5203 6.43821 11.4772 6.41047C11.423 6.37517 11.0887 6.03399 11.0455 5.9759C11.0219 5.94392 10.9902 5.92634 11.0026 5.87629L14.4869 5.6634C14.5067 4.60656 14.5448 4.08191 14.5182 3.02179C14.5067 2.55886 14.5117 1.91293 14.3903 1.47492C14.3566 1.3541 14.2582 1.24654 14.2799 1.11359C14.3508 1.10849 14.4189 1.11326 14.4889 1.12629ZM24.5201 7.45832C24.5662 7.18087 25.5732 7.7029 25.6725 7.74054C25.7858 7.8917 25.5729 8.15263 25.61 8.3216L27.8658 8.20636C28.2289 8.19391 28.549 7.67659 28.8893 7.96711C28.8742 8.06564 29.7722 8.81375 29.4567 8.88312C28.5205 8.65988 27.2188 8.71669 26.3199 8.84406C26.8733 10.1895 28.2725 11.3804 29.6129 11.9671C29.6274 12.2063 29.028 12.0943 28.8805 12.2298C28.5715 12.3518 28.4875 12.6131 28.152 12.3763C27.0652 11.6272 26.9048 9.69135 25.5817 9.22785C25.5752 9.97943 25.5785 11.0374 25.6266 11.7737C25.6538 12.0099 24.9896 12.2332 24.8141 12.3255C24.4502 12.4319 24.7458 11.7996 24.6959 11.5902C24.584 11.0603 25.1032 8.83195 24.4 9.18586C25.796 8.62874 21.6023 9.18721 21.317 9.22589C21.0606 9.16927 20.7996 8.81168 20.651 8.6214L24.6764 8.37531C24.7955 8.15305 24.5653 7.64887 24.5201 7.45832ZM3.08752 2.55109C3.21427 2.56808 3.63378 3.14034 3.7428 3.25812L3.71155 3.31769C3.59737 3.39188 3.31675 3.27517 3.17444 3.263C2.84212 3.23444 2.49387 3.3402 2.15979 3.34504V3.34406C2.14567 3.40864 2.16634 3.38944 2.1969 3.40754C2.27765 3.45584 2.47605 3.49442 2.53479 3.54914C2.67837 3.68476 2.49317 3.98223 2.48401 4.1507L2.45471 5.88996C2.72024 5.94809 2.9352 5.57271 3.17151 5.64093C3.22535 5.65665 3.46087 5.9263 3.51623 5.98957C4.11967 6.67884 3.6522 6.37042 3.17932 6.34113C2.93676 6.32612 2.69461 6.38657 2.45471 6.39875L2.48791 9.3216L2.57287 9.3548L3.79748 8.4632C3.91773 8.55777 3.74464 8.71177 3.67639 8.80011C3.03416 9.6299 2.09176 10.4321 1.27405 11.1087C1.11598 11.2395 0.973344 11.4255 0.82385 11.1995C0.776116 11.1269 0.509392 10.5989 0.489866 10.5296C0.465935 10.4435 0.462141 10.3816 0.554319 10.3343C0.720221 10.2673 1.58458 9.98013 1.62268 9.85871L1.65686 6.51203C1.62723 6.48509 1.0324 6.6904 0.881467 6.64777C0.840105 6.63588 0.4111 6.19107 0.4176 6.15851C0.484093 6.10555 0.612323 6.09836 0.697874 6.0882C0.829962 6.07238 1.60489 6.05479 1.64416 6.00519C1.65096 5.44543 1.67949 4.87843 1.65881 4.31867C1.65641 4.25196 1.63016 4.19006 1.62658 4.12336C1.61359 3.88755 1.64661 3.66313 1.56897 3.42902C1.37338 3.42817 0.937285 3.61426 0.778928 3.54914C0.748162 3.53426 0.382478 3.17027 0.357053 3.1341C0.334023 3.10014 0.320787 3.07763 0.328733 3.03351L2.61877 2.77961C2.76476 2.71947 2.91386 2.52831 3.08752 2.55109ZM22.7487 0.501286C22.8306 0.517219 23.2717 0.873599 23.3668 0.953434C23.5567 1.1127 23.8476 1.2749 23.7272 1.55402L22.7164 3.14582L22.8834 3.19074C23.2015 3.30466 23.0425 3.47349 22.9889 3.76007C22.8379 4.569 22.9689 5.87101 22.984 6.72297C22.9879 6.94099 23.0139 7.31621 22.9811 7.51496C22.9671 7.5994 22.9134 7.6484 22.8444 7.69562C22.765 7.74956 22.1114 8.05009 22.0553 8.04133L22.1256 3.85285C22.0744 3.84029 22.0662 3.87434 22.0367 3.89582C21.8214 4.05312 21.53 4.42997 21.2994 4.63117C21.134 4.77585 20.9291 4.93673 20.7516 5.06867C20.6596 5.13724 20.284 5.43074 20.1949 5.40754C20.0577 5.27397 20.3736 5.08218 20.4713 4.97004C21.2453 4.07852 22.0088 2.883 22.4 1.78254C22.5412 1.38483 22.6677 0.940073 22.6598 0.518864C22.6882 0.509237 22.7173 0.495057 22.7487 0.501286ZM24.6071 0.74152C24.6774 0.677877 25.722 1.13311 25.8561 1.22687C26.3501 1.57456 26.1168 2.0421 25.7877 2.41047C25.8808 2.40849 25.9749 2.41528 26.068 2.41047C26.336 2.39687 26.9567 2.35544 27.1764 2.25617C27.343 2.18088 27.4781 1.9802 27.6744 2.08722C27.7182 2.111 28.2288 2.67924 28.2653 2.74054C28.4159 2.99537 27.7903 2.79034 27.6881 2.78156C27.5809 2.77252 27.4733 2.78036 27.3658 2.77668L25.4625 2.94855L25.7848 3.07746C26.0227 3.21609 25.7221 3.66155 25.7867 3.88117C26.1333 3.85314 26.6319 3.88515 26.9401 3.72687C27.152 3.61783 27.2474 3.42567 27.486 3.65461C27.5454 3.71207 27.9604 4.19729 27.9713 4.23664C28.0203 4.4522 27.6446 4.29413 27.5114 4.28058C26.9423 4.22396 26.3572 4.3561 25.7867 4.36261L25.7682 5.25519L25.8053 5.29133C25.8724 5.29921 25.9417 5.29999 26.0094 5.29718C26.2223 5.28756 26.7658 5.25817 26.9459 5.20441C27.1258 5.15063 27.2925 4.93008 27.483 4.95539C27.5909 4.96983 28.0277 5.54028 28.1207 5.6507C28.1444 5.84705 27.6657 5.67872 27.5406 5.6673C27.4432 5.65881 27.3451 5.66523 27.2477 5.66242L25.7867 5.77668V6.71027C25.9287 6.70716 26.0722 6.71506 26.2145 6.71027C26.4854 6.70121 27.28 6.66386 27.4899 6.57355C27.6506 6.50447 27.8583 6.26748 28.0436 6.43C28.0991 6.47887 28.5564 7.00725 28.5768 7.05109C28.6991 7.31153 28.1682 7.1176 28.0455 7.10675C27.8278 7.08807 27.5299 7.09829 27.3063 7.1048C26.2407 7.13566 25.0633 7.24001 24.0045 7.36457C23.7892 7.39004 23.6447 7.5025 23.443 7.32941C23.4099 7.30081 23.151 7.01321 23.1285 6.9798C23.1061 6.94648 23.0917 6.92396 23.1002 6.88019L24.9303 6.76691V5.88996L23.9254 6.02082C23.8345 5.99551 23.433 5.58877 23.4244 5.53644C23.4155 5.4782 23.5706 5.47037 23.6178 5.46613C24.0534 5.42823 24.4965 5.43523 24.9313 5.38117V4.47492C24.8856 4.43195 24.0629 4.63641 23.9147 4.61554C23.7826 4.59714 23.5063 4.2205 23.3961 4.1214L24.903 3.98175C24.9888 3.92387 24.8829 3.14527 24.8424 3.00422L23.649 3.17316C23.5846 3.16665 23.5426 3.12923 23.4977 3.09015C23.4622 3.05905 23.1434 2.70597 23.1305 2.67902C23.1036 2.61843 23.1763 2.64282 23.2047 2.638C23.5908 2.57125 24.0716 2.58433 24.4733 2.55207C24.7977 2.52602 25.1205 2.46711 25.4479 2.46711L25.5221 2.42414C25.3525 1.93376 25.1119 1.46939 24.8082 1.04328C24.7403 0.947861 24.6032 0.872046 24.6071 0.74152ZM4.93518 4.30597C5.28219 4.61963 6.15681 4.95853 5.91076 5.53742L5.64416 5.88996L6.79065 5.80011C7.02373 5.27219 7.37727 4.69961 7.26721 4.10773L4.93518 4.30597ZM12.025 2.2132C12.0853 2.20527 12.1262 2.23857 12.1705 2.26886C12.5369 2.52039 13.5902 3.62681 13.6315 4.03644C13.6554 4.27399 13.4892 4.58703 13.3072 4.74445C12.7395 5.23521 12.7598 4.40355 12.6725 4.05109C12.5599 3.59866 12.4108 3.18548 12.2194 2.7591C12.1712 2.65217 11.9963 2.38764 11.983 2.305C11.9756 2.25747 11.9796 2.2378 12.025 2.2132ZM3.75451 1.64679C3.8125 1.58968 4.40091 2.01039 4.47619 2.0716C4.86234 2.38616 5.22836 2.78777 4.72522 3.21418C4.25691 3.61067 4.25681 2.96578 4.1676 2.67902C4.12951 2.55592 4.08253 2.41759 4.03381 2.29816C3.96911 2.13932 3.80123 1.89517 3.76135 1.76691C3.74898 1.72759 3.75274 1.68668 3.75451 1.64679Z" fill="white"/>
</g>
</svg>
