<svg t="1751101222688" class="icon" viewBox="0 0 1024 1024" version="1.1" xmlns="http://www.w3.org/2000/svg" p-id="1709" width="200" height="200"><path d="M797.267 350.631l-107.982-106.44c-4.521-4.455-10.732-7.209-17.585-7.212h-155.456c0.133-1.048 0.332-2.125 0.332-3.232-0.005-48.999-41.333-88.845-92.155-88.845-50.803 0-92.134 39.847-92.134 88.849v3.232h-87.994c-13.821 0-25.022 11.23-25.022 25.055v595.696c0 13.836 11.204 25.055 25.022 25.055h535.396c13.83-0.007 25.041-11.22 25.041-25.052 0-0.002 0-0.004 0-0.005v-489.293c0-6.692-2.693-13.123-7.463-17.809zM384.135 233.751c0-20.424 18.070-37.012 40.288-37.012 22.214 0 40.314 16.587 40.314 37.012 0 1.106 0.178 2.182 0.317 3.232h-80.92v-3.232zM754.637 832.708h-485.287v-545.623h62.938v180.609c0 48.971 41.333 88.831 92.136 88.831 50.817 0 92.155-39.864 92.155-88.831v-103.906c0-14.316-11.61-25.899-25.944-25.899-0.006 0-0.008 0-0.015 0-14.294 0-25.882 11.588-25.882 25.882 0 0.007 0 0.013 0 0.020v103.905c0 20.396-18.101 36.979-40.314 36.979s-40.282-16.584-40.282-36.979v-180.608h272.553v81.617c0.003 8.29 6.722 15.010 15.011 15.012h82.932l-0.005 448.995z" fill="#2c2c2c" p-id="1710"></path></svg>