<svg width="30" height="13" viewBox="0 0 30 13" fill="none" xmlns="http://www.w3.org/2000/svg">
<path d="M22.7582 8.98164C22.8578 8.83846 23.396 9.44226 23.4516 9.40545C23.4484 9.34762 23.4488 9.34168 23.5111 9.34979C23.4689 9.48597 23.6353 9.57112 23.6176 9.6906C23.6047 9.7735 23.3633 10.1435 23.2992 10.2355C22.2694 11.5551 20.5571 13.0428 18.7291 12.9991C18.7152 12.9181 18.7472 12.9518 18.7975 12.9385C19.8011 12.8524 20.8062 12.48 21.563 11.8253C21.4717 11.7151 20.4253 12.4758 20.2935 12.2921C21.495 11.8255 22.6444 10.1965 22.7582 8.98164ZM6.08508 0.0435204C6.15096 -0.0164571 6.86127 0.22973 6.9786 0.27691C7.42889 0.457722 7.17264 0.590994 7.12117 0.90872C7.10613 1.00089 7.09457 1.17365 7.08895 1.27394C7.06236 1.73289 7.10786 2.21335 7.08895 2.67427C7.15956 2.68985 7.13733 2.66208 7.15535 2.63717C7.40175 2.29354 7.78409 1.42124 7.84966 1.01223C7.87416 0.859621 7.7825 0.591754 8.01469 0.698768C8.14179 0.75744 8.42651 0.950984 8.54495 1.03957C8.67523 1.13697 8.81411 1.20204 8.71486 1.38917C8.24666 1.84948 7.79343 2.31406 7.28035 2.72994C7.09393 2.88113 7.05468 2.82359 7.08895 3.12738C7.42072 3.08916 7.84163 3.12012 8.15922 3.03461C8.42977 2.96179 8.59802 2.63416 8.87599 2.90083C8.95157 2.97335 9.31675 3.40085 9.36425 3.47893C9.55007 3.78471 9.03337 3.57911 8.89747 3.55901C8.70808 3.53076 8.57618 3.54947 8.40335 3.55119C7.94425 3.55572 7.48886 3.58927 7.03036 3.60881C7.15552 3.73679 7.87634 3.96971 7.877 4.15957L6.82431 5.27671C7.04163 5.22986 7.29004 5.25758 7.50495 5.20835C7.69476 5.16454 7.86573 4.93606 8.04789 4.9652C8.12769 4.97969 8.71657 5.63299 8.70998 5.68294C8.68487 5.83187 8.22593 5.68139 8.10746 5.67318C8.01913 5.66724 7.92949 5.67576 7.84087 5.67123L6.60166 5.75716L6.52842 5.80013V6.64873C6.55043 6.67739 6.55449 6.679 6.58897 6.679C6.71263 6.67896 7.00428 6.65348 7.12117 6.62236C7.3161 6.57051 7.53907 6.26622 7.75201 6.4378C7.8276 6.49892 8.07152 6.80576 8.15141 6.9036C8.52861 7.3653 8.00309 7.13259 7.72564 7.11355C7.43766 7.09402 6.95193 7.11012 6.66416 7.14578C6.61724 7.15172 6.57122 7.16688 6.52842 7.18581L6.43956 8.16136L8.04497 8.07347C8.35723 8.09471 8.66612 7.631 8.93555 7.87817C9.0051 8.03889 9.48674 8.45185 9.50682 8.57834C9.51094 8.60375 9.51605 8.6208 9.49803 8.64376C9.43954 8.71879 8.92104 8.56648 8.7881 8.55685C8.50132 8.53563 8.21247 8.57553 7.93071 8.58517C7.50175 8.59989 7.07437 8.61674 6.64658 8.64279C6.85308 9.06584 7.16378 9.23601 7.46003 9.60369C7.46003 9.60369 7.75465 9.96335 7.81255 10.0285C8.12896 10.3832 8.54516 10.4861 8.94044 10.7579C9.04795 10.8318 9.65818 11.1827 9.6826 11.2345C9.69116 11.2549 9.69616 11.312 9.68552 11.3272C9.46336 11.3819 9.25266 11.4005 9.03907 11.4854C8.89015 11.5447 8.54813 11.8004 8.45999 11.8097C8.41301 11.8145 8.37919 11.806 8.33695 11.7882C8.19967 11.7303 7.87976 11.2446 7.78619 11.0997C7.4964 10.6522 7.26086 10.4251 7.04403 9.94156L6.98837 9.85758L6.49327 8.67696L6.35753 8.67599C6.2497 9.25438 6.06098 9.81991 5.7765 10.34C5.74827 10.3912 5.50725 10.7468 5.52553 10.7638L5.33218 10.9835C5.24753 11.0654 5.18342 11.1685 5.09684 11.2462C4.64454 11.6519 4.1604 11.9515 3.58225 12.171C3.45906 12.2177 2.68243 12.4842 2.63014 12.4327V12.3487C3.03429 12.2179 3.71201 11.6833 4.01778 11.4308C4.2039 11.2804 4.44403 11.0209 4.57342 10.8575C5.02582 10.2422 5.32037 9.47241 5.43472 8.72774L3.8879 8.925C3.78834 8.91368 3.57201 8.69459 3.50022 8.61447C3.46315 8.57295 3.30772 8.40585 3.3391 8.36057L5.50405 8.22093C5.53684 8.20111 5.54561 8.15224 5.55092 8.11742C5.59164 7.84374 5.60034 7.53372 5.61244 7.25612C5.52943 7.25924 5.44479 7.25116 5.36148 7.2571C5.17126 7.2704 4.6325 7.41032 4.51093 7.39284C4.42936 7.38127 3.98528 6.91369 3.98849 6.87528L5.64174 6.74735V5.88411C5.62172 5.82423 5.34517 5.86365 5.27261 5.87044C5.04105 5.89167 4.80312 5.93094 4.57245 5.96321C4.47023 5.9774 4.32 6.03585 4.23555 6.0384C4.03743 6.04367 3.85609 5.66796 3.69162 5.5726L3.72189 5.48764L5.05094 5.38901C4.88731 4.83852 4.67401 4.32415 4.34296 3.8461C4.27708 3.80703 3.66895 3.9892 3.4846 3.93399C3.44362 3.92047 3.09488 3.57495 3.05688 3.52385C3.03327 3.4923 3.00125 3.47422 3.01392 3.42424C3.0406 3.33543 4.72051 3.34596 4.92009 3.24163C4.93043 2.71927 4.95158 2.19082 4.93474 1.66846C4.92589 1.39229 4.92424 0.94412 4.86736 0.687049C4.83369 0.535078 4.7233 0.400496 4.72674 0.241755C4.7757 0.197095 5.43055 0.42678 5.53823 0.467332C5.60701 0.493358 5.80142 0.554657 5.82826 0.615763C5.90979 0.802909 5.72608 1.07308 5.72963 1.27296L5.70033 3.21136L6.29113 3.18304C6.27255 2.55721 6.31553 1.92683 6.29308 1.30128C6.28422 1.05476 6.2776 0.668089 6.21887 0.439012C6.18312 0.299431 6.08538 0.183951 6.08508 0.0435204ZM14.1619 0.626505C14.303 0.653184 15.0494 0.916688 15.1355 0.993678C15.1682 1.02336 15.2104 1.07263 15.2185 1.11477C15.2371 1.21581 15.0896 1.59668 15.0759 1.75927C15.0585 1.96539 15.0518 2.22747 15.0447 2.43698C15.0155 3.30722 15.0684 3.64188 15.0457 4.51209H15.0466C15.1057 4.51916 15.1443 4.46463 15.1794 4.42811C15.9868 3.59124 16.6513 2.31014 16.8454 1.18703H16.9372L17.775 1.88427C17.8314 1.97909 17.8312 2.04579 17.7848 2.14402C17.7308 2.25805 17.3941 2.64921 17.2897 2.77193C16.656 3.51796 15.8826 4.12987 15.074 4.6947C15.0236 4.76185 15.0333 5.0135 15.074 5.0941C15.1211 5.12506 15.6619 5.0561 15.7702 5.05016C16.2054 5.02584 16.9445 5.05044 17.3356 4.93786C17.5956 4.86311 17.8962 4.49586 18.1657 4.74841C18.2222 4.80158 18.7216 5.43169 18.7438 5.48178C18.7658 5.53173 18.7773 5.5861 18.7623 5.63998C18.7319 5.65215 18.6971 5.66731 18.6637 5.66732C18.4849 5.66675 18.1316 5.51887 17.8961 5.50131C17.4353 5.46705 16.9653 5.53429 16.5065 5.55893C16.4187 5.56362 16.0982 5.53555 16.0622 5.58529C16.0023 6.27796 16.0253 6.9723 16.0212 7.66724C16.0171 8.36221 15.9883 8.53624 16.0202 9.25116C16.0341 9.5622 16.0424 10.092 16.3649 10.2482C16.6668 10.394 17.5374 10.3708 17.8473 10.2365C18.0011 10.1697 18.0546 10.1014 18.108 9.94937L18.5367 7.8977L18.6481 7.84985C18.6554 8.52186 18.5999 9.23154 18.817 9.88004C18.9368 10.2373 19.3238 10.6434 18.9283 10.9884C18.5106 11.3528 16.8037 11.3387 16.2556 11.2306C15.1397 11.0103 15.1631 10.0585 15.1335 9.16523C15.0887 7.81114 15.1732 7.01588 15.1306 5.66146L15.074 5.62728L13.5994 5.72884C13.6849 5.87744 14.0935 5.91158 14.1473 6.06672C14.1842 6.17462 14.116 6.56052 14.0965 6.70048C13.7993 8.86213 12.7645 11.1685 10.6962 12.2676C10.6203 12.3081 10.2898 12.5225 10.291 12.3614C10.2929 12.3069 10.9446 11.6992 11.0458 11.5841C12.2004 10.2733 12.9092 8.45606 13.1229 6.7581C13.1365 6.65028 13.2214 5.79845 13.1395 5.7845C12.5183 5.79498 11.9037 5.90182 11.289 5.97883C11.2399 5.96213 11.1934 5.93822 11.1503 5.91047C11.0961 5.87518 10.7619 5.53401 10.7187 5.47592C10.6951 5.44395 10.6634 5.42637 10.6757 5.37632L14.16 5.16343C14.1797 4.10664 14.2178 3.58201 14.1912 2.52194C14.1797 2.05903 14.1847 1.41312 14.0633 0.975124C14.0296 0.854311 13.9312 0.746758 13.9529 0.61381C14.0238 0.608714 14.0919 0.613481 14.1619 0.626505ZM24.1928 6.95828C24.2388 6.68085 25.2458 7.20286 25.3451 7.2405C25.4583 7.39165 25.2455 7.65257 25.2826 7.82153L27.5383 7.7063C27.9014 7.69384 28.2214 7.17654 28.5617 7.46705C28.5467 7.56558 29.4446 8.31367 29.1291 8.38303C28.193 8.1598 26.8913 8.2166 25.9925 8.34397C26.5458 9.68938 27.945 10.8803 29.2853 11.4669C29.2998 11.7061 28.7005 11.594 28.5529 11.7296C28.244 11.8516 28.1599 12.1129 27.8244 11.8761C26.7377 11.127 26.5773 9.19122 25.2542 8.72774C25.2477 9.47929 25.251 10.5372 25.2992 11.2735C25.3263 11.5097 24.6622 11.733 24.4867 11.8253C24.1228 11.9316 24.4184 11.2994 24.3685 11.09C24.2566 10.5601 24.7757 8.33186 24.0726 8.68575C25.4686 8.12866 21.275 8.68711 20.9898 8.72579C20.7333 8.66917 20.4724 8.3116 20.3238 8.12132L24.349 7.87524C24.4681 7.65299 24.238 7.14883 24.1928 6.95828ZM2.761 2.05125C2.88774 2.06824 3.30723 2.64048 3.41624 2.75826L3.38499 2.81782C3.27082 2.89201 2.99022 2.77531 2.84791 2.76314C2.51561 2.73457 2.16737 2.84033 1.8333 2.84517V2.84419C1.81918 2.90877 1.83985 2.88957 1.87041 2.90766C1.95116 2.95596 2.14955 2.99454 2.20828 3.04926C2.35186 3.18488 2.16666 3.48234 2.1575 3.6508L2.12821 5.38999C2.39372 5.44812 2.60868 5.07275 2.84498 5.14097C2.89882 5.15669 3.13433 5.42633 3.18969 5.48959C3.79311 6.17883 3.32565 5.87043 2.85279 5.84114C2.61024 5.82613 2.3681 5.88658 2.12821 5.89876L2.16141 8.82149L2.24637 8.85469L3.47093 7.96313C3.59117 8.05769 3.41808 8.21169 3.34984 8.30003C2.70763 9.12978 1.76528 9.93191 0.947592 10.6085C0.789536 10.7393 0.646902 10.9253 0.497414 10.6993C0.449683 10.6267 0.182969 10.0988 0.163443 10.0294C0.139513 9.94338 0.13572 9.88143 0.227894 9.83415C0.393789 9.76719 1.25811 9.47999 1.29621 9.35858L1.33039 6.01203C1.30076 5.9851 0.705954 6.1904 0.555029 6.14777C0.513669 6.13588 0.0846811 5.69109 0.0911806 5.65853C0.15767 5.60557 0.285895 5.59838 0.371443 5.58822C0.503526 5.5724 1.27842 5.55481 1.31769 5.50522C1.32449 4.94548 1.35302 4.3785 1.33234 3.81876C1.32994 3.75206 1.30369 3.69016 1.30012 3.62346C1.28712 3.38765 1.32015 3.16325 1.2425 2.92915C1.04693 2.9283 0.610845 3.11438 0.452494 3.04926C0.42173 3.03438 0.0560602 2.67041 0.0306361 2.63424C0.00760671 2.60028 -0.00562862 2.57777 0.00231691 2.53366L2.29226 2.27976C2.43825 2.21963 2.58734 2.02848 2.761 2.05125ZM22.4213 0.00152989C22.5033 0.0174622 22.9444 0.373828 23.0395 0.45366C23.2294 0.612922 23.5202 0.775113 23.3998 1.05422L22.3891 2.64596L22.5561 2.69088C22.8741 2.80479 22.7151 2.97362 22.6616 3.26019C22.5106 4.06908 22.6416 5.37104 22.6567 6.22296C22.6605 6.44098 22.6865 6.81619 22.6538 7.01492C22.6398 7.09937 22.5861 7.14836 22.517 7.19558C22.4377 7.24951 21.7841 7.55004 21.728 7.54127L21.7983 3.35296C21.7472 3.34041 21.7389 3.37445 21.7095 3.39593C21.4942 3.55322 21.2027 3.93005 20.9722 4.13125C20.8067 4.27593 20.6019 4.43679 20.4244 4.56873C20.3324 4.6373 19.9568 4.93079 19.8677 4.90758C19.7305 4.77402 20.0464 4.58224 20.1441 4.4701C20.918 3.57862 21.6815 2.38315 22.0727 1.28273C22.2139 0.885042 22.3404 0.440299 22.3325 0.0191073C22.3608 0.00948103 22.39 -0.00469888 22.4213 0.00152989ZM24.2797 0.241755C24.35 0.178114 25.3945 0.633327 25.5286 0.727087C26.0226 1.07477 25.7894 1.54229 25.4603 1.91063C25.5533 1.90866 25.6475 1.91545 25.7405 1.91063C26.0085 1.89704 26.6293 1.85561 26.8489 1.75634C27.0155 1.68106 27.1506 1.48039 27.3469 1.5874C27.3906 1.61118 27.9013 2.1794 27.9377 2.2407C28.0884 2.49551 27.4628 2.29049 27.3606 2.28171C27.2534 2.27267 27.1458 2.28051 27.0383 2.27683L25.1351 2.4487L25.4574 2.5776C25.6953 2.71622 25.3946 3.16167 25.4593 3.38128C25.8058 3.35325 26.3044 3.38525 26.6126 3.22699C26.8245 3.11795 26.9199 2.92579 27.1585 3.15472C27.2179 3.21219 27.6328 3.69739 27.6438 3.73673C27.6928 3.95229 27.3171 3.79422 27.1838 3.78068C26.6149 3.72405 26.0298 3.85619 25.4593 3.8627L25.4408 4.75525L25.4779 4.79138C25.545 4.79927 25.6142 4.80004 25.682 4.79724C25.8949 4.78761 26.4383 4.75822 26.6184 4.70447C26.7983 4.65069 26.9651 4.43015 27.1555 4.45545C27.2634 4.46989 27.7001 5.04032 27.7932 5.15074C27.8169 5.34708 27.3382 5.17876 27.2131 5.16734C27.1157 5.15885 27.0176 5.16527 26.9202 5.16246L25.4593 5.27671V6.21027C25.6013 6.20715 25.7448 6.21505 25.887 6.21027C26.1579 6.20121 26.9525 6.16385 27.1624 6.07355C27.3231 6.00447 27.5308 5.76749 27.7161 5.93C27.7715 5.97887 28.2289 6.50724 28.2492 6.55107C28.3715 6.8115 27.8407 6.61758 27.718 6.60674C27.5003 6.58805 27.2024 6.59827 26.9788 6.60478C25.9133 6.63564 24.7359 6.73998 23.6772 6.86454C23.4618 6.89001 23.3174 7.00246 23.1157 6.82938C23.0826 6.80079 22.8237 6.5132 22.8012 6.47979C22.7788 6.44647 22.7644 6.42395 22.7729 6.38018L24.6029 6.26691V5.38999L23.5981 5.52084C23.5072 5.49553 23.1057 5.08882 23.0971 5.03649C23.0881 4.97824 23.2433 4.97041 23.2905 4.96618C23.7261 4.92828 24.1691 4.93528 24.6039 4.88122V3.975C24.5582 3.93204 23.7355 4.13649 23.5873 4.11562C23.4553 4.09722 23.179 3.7206 23.0688 3.6215L24.5756 3.48186C24.6614 3.42398 24.5555 2.64541 24.515 2.50436L23.3217 2.6733C23.2573 2.66679 23.2152 2.62937 23.1703 2.59029C23.1349 2.5592 22.8161 2.20612 22.8032 2.17918C22.7763 2.11859 22.849 2.14298 22.8774 2.13816C23.2634 2.07142 23.7442 2.0845 24.1459 2.05223C24.4703 2.02618 24.7931 1.96727 25.1205 1.96727L25.1947 1.9243C25.0251 1.43395 24.7845 0.969593 24.4808 0.5435C24.4129 0.448087 24.2758 0.372276 24.2797 0.241755ZM4.60858 3.80607C4.95557 4.11971 5.83016 4.4586 5.58413 5.03746L5.31753 5.38999L6.46397 5.30015C6.69704 4.77224 7.05058 4.19969 6.94052 3.60783L4.60858 3.80607ZM11.6981 1.71338C11.7584 1.70545 11.7993 1.73874 11.8436 1.76904C12.21 2.02055 13.2632 3.12693 13.3045 3.53655C13.3285 3.77409 13.1623 4.08711 12.9803 4.24452C12.4126 4.73527 12.4329 3.90364 12.3456 3.55119C12.233 3.09878 12.0839 2.68561 11.8925 2.25925C11.8444 2.15233 11.6694 1.88781 11.6561 1.80517C11.6488 1.75764 11.6528 1.73798 11.6981 1.71338ZM3.42796 1.14699C3.48594 1.08988 4.07433 1.51058 4.14961 1.57178C4.53574 1.88633 4.90174 2.28792 4.39863 2.71431C3.93034 3.11079 3.93023 2.46593 3.84103 2.17918C3.80294 2.05608 3.75596 1.91776 3.70725 1.79833C3.64255 1.6395 3.47468 1.39536 3.4348 1.2671C3.42243 1.22778 3.42619 1.18688 3.42796 1.14699Z" fill="white"/>
</svg>
