<svg width="3" height="3" viewBox="0 0 3 3" fill="none" xmlns="http://www.w3.org/2000/svg">
<path d="M1.70589 0.0638923C1.93905 0.0623652 2.81403 -0.107285 2.95197 0.112616C3.04648 0.264034 2.97212 0.810756 2.97374 1.00208C2.97536 1.21577 2.98014 1.39997 2.97581 1.61061C2.97095 1.86665 3.04349 2.72698 2.90014 2.86187C2.82774 2.92976 2.72728 2.9502 2.62853 2.96139C2.11624 3.01688 0.93217 3.00671 0.407977 2.96243C0.28801 2.95227 0.172603 2.95125 0.085572 2.8598C0.0926046 2.52893 0.00480212 2.1315 0.00263827 1.81794C-0.000603628 1.38397 -0.00114482 0.927629 0.00263827 0.497221C0.00534308 0.22489 0.053924 0.0408808 0.364437 0.0296821L0.699282 0.0286455C1.03436 0.0367743 1.37256 0.0657974 1.70589 0.0638923ZM2.38387 2.78205C2.38387 2.82379 2.51845 2.88419 2.57255 2.85772C2.7483 2.80522 2.5456 2.14586 2.5456 1.99418H2.38387V2.78205ZM2.86904 0.114689C2.46734 0.203095 2.03256 0.182836 1.6271 0.114689V0.31684H2.65341V0.419471H1.70796L1.62607 0.571862H2.62646C2.63782 0.571862 2.68838 0.495613 2.70732 0.521065V0.673456H1.57216V0.928477C1.27686 0.970183 0.974434 0.956316 0.677512 0.976164C0.580699 0.982775 0.502947 0.962847 0.438041 1.05495C0.772878 1.26402 1.19213 0.966324 1.56698 1.13581C1.61882 1.22328 1.52547 1.48661 1.43739 1.48724H0.274246C0.270498 1.45402 0.346441 1.38565 0.356144 1.38565H1.32854L1.41044 1.23326H0.41005C0.0297795 0.534409 1.03716 0.982025 1.4094 0.825846C1.43266 0.778507 1.361 0.673456 1.32854 0.673456H0.328153V0.571862H1.46435V0.16445C1.26527 0.209244 0.228102 0.0635118 0.166432 0.241163L0.167469 0.240127V1.89258H1.16786L1.24872 2.04497H0.302237C0.284062 2.04402 0.238257 1.98918 0.198569 1.99625L0.113562 2.07193L0.194423 2.1984H1.11395C1.12861 2.19725 1.18701 2.12589 1.24872 2.1476L1.16786 2.29999H0.167469L0.174726 2.72503L0.256623 2.80174L1.59393 2.85565L1.67272 2.77583L1.70796 2.29999L1.78986 2.8598L1.95158 2.809V1.89362H2.1133C2.13386 1.9491 2.0594 2.00535 2.0594 2.02113V2.78412C2.47245 3.09269 2.18587 1.98772 2.22319 1.94649L2.65237 1.89466L2.76226 2.809C2.92022 2.70567 2.88693 2.32379 2.89288 2.12272C2.90098 1.85657 2.86653 1.53246 2.86489 1.25918C2.86273 0.881115 2.89279 0.497839 2.86904 0.114689ZM1.38349 1.6386C1.60039 1.7638 1.62373 2.3759 1.44258 2.50733C1.22404 2.66563 0.514618 2.56345 0.221376 2.65454C0.204737 2.55707 0.263916 2.51846 0.356144 2.50215C0.661166 2.44973 1.07015 2.58881 1.36172 2.38085C1.46007 2.27356 1.43372 1.74029 1.27567 1.73915H0.275283V1.63756H1.38349V1.6386ZM1.73492 1.35559C1.77727 1.33238 1.80424 1.38267 1.81578 1.38358H2.70835L2.70006 1.68214C2.4658 1.81256 2.0986 1.68233 1.87694 1.74745C1.72604 1.79276 1.90005 2.22254 1.62814 1.96515L1.73492 1.63756H2.5456V1.48517H1.68101L1.73492 1.35559ZM1.68205 1.28302C1.6761 0.860547 2.40268 1.21202 2.70835 1.13063C2.71212 1.16306 2.63726 1.23159 2.62749 1.23222C2.37607 1.23222 2.05534 1.20633 1.81681 1.23222L1.76291 1.2654C1.73984 1.28004 1.71212 1.29221 1.68205 1.28302ZM1.70693 0.875607C1.77075 0.790615 2.37081 0.812841 2.5062 0.838287C2.60628 0.857121 2.6837 0.861651 2.65341 0.977201H1.76187L1.70693 0.875607ZM1.1295 0.278483C1.23101 0.273335 1.28145 0.235434 1.3555 0.341721C1.35152 0.499115 0.464921 0.328749 0.330227 0.518991L0.383097 0.340684C0.624262 0.32591 0.885653 0.291203 1.1295 0.278483Z" fill="#EA3A3A"/>
</svg>
